<?xml version="1.0" standalone="no"?>
<!DOCTYPE svg PUBLIC "-//W3C//DTD SVG 20010904//EN"
 "http://www.w3.org/TR/2001/REC-SVG-20010904/DTD/svg10.dtd">
<svg version="1.0" xmlns="http://www.w3.org/2000/svg"
 width="333.000000pt" height="435.000000pt" viewBox="0 0 333.000000 435.000000"
 preserveAspectRatio="xMidYMid meet">

<g transform="translate(0.000000,435.000000) scale(0.100000,-0.100000)"
fill="#000000" stroke="none">
<path d="M267 4022 c-16 -17 -17 -150 -17 -1714 0 -1629 1 -1696 18 -1711 17
-16 130 -17 1424 -17 1273 0 1406 1 1412 16 3 9 6 375 6 813 0 760 -1 799 -18
814 -17 15 -64 17 -470 17 l-452 0 0 883 c0 844 -1 885 -18 900 -17 16 -97 17
-944 17 -883 0 -926 -1 -941 -18z m1803 -1712 l0 -1630 -273 0 -273 0 -12 84
c-17 131 -61 227 -142 308 -55 55 -76 69 -125 83 -188 55 -367 -93 -419 -347
-9 -42 -16 -89 -16 -103 l0 -25 -230 0 -230 0 0 1630 0 1630 860 0 860 0 0
-1630z m940 -905 l0 -735 -400 0 -400 0 0 735 0 735 400 0 400 0 0 -735z"/>
<path d="M547 3622 c-12 -13 -17 -37 -17 -84 0 -107 -62 -98 678 -98 569 0
642 2 656 16 24 24 22 145 -2 167 -17 15 -77 17 -659 17 -607 0 -641 -1 -656
-18z"/>
<path d="M567 3122 c-12 -13 -17 -37 -17 -84 0 -107 -62 -98 678 -98 569 0
642 2 656 16 24 24 22 145 -2 167 -17 15 -77 17 -659 17 -607 0 -641 -1 -656
-18z"/>
<path d="M547 2652 c-12 -13 -17 -37 -17 -84 0 -107 -62 -98 678 -98 569 0
642 2 656 16 24 24 22 145 -2 167 -17 15 -77 17 -659 17 -607 0 -641 -1 -656
-18z"/>
</g>
</svg>
