<?xml version="1.0" standalone="no"?>
<!DOCTYPE svg PUBLIC "-//W3C//DTD SVG 20010904//EN"
 "http://www.w3.org/TR/2001/REC-SVG-20010904/DTD/svg10.dtd">
<svg version="1.0" xmlns="http://www.w3.org/2000/svg"
 width="1600.000000pt" height="1600.000000pt" viewBox="0 0 1600.000000 1600.000000"
 preserveAspectRatio="xMidYMid meet">

<g transform="translate(0.000000,1600.000000) scale(0.100000,-0.100000)"
fill="#000000" stroke="none">
<path d="M7605 15969 c-1554 -124 -2925 -1043 -3620 -2430 -246 -491 -389
-978 -452 -1541 -23 -211 -23 -704 1 -958 42 -457 106 -834 222 -1308 423
-1723 1456 -3866 2982 -6187 409 -622 944 -1376 1014 -1428 119 -89 267 -88
370 2 74 66 436 574 837 1176 374 561 680 1048 993 1580 1599 2719 2406 4954
2408 6671 0 494 -73 948 -230 1415 -479 1430 -1668 2527 -3130 2888 -185 46
-406 86 -596 107 -168 18 -634 26 -799 13z m815 -613 c610 -85 1158 -289 1640
-611 927 -620 1533 -1597 1675 -2704 146 -1130 -241 -2733 -1122 -4651 -623
-1355 -1590 -3009 -2546 -4353 -65 -92 -123 -169 -127 -172 -24 -15 -662 913
-1042 1515 -1399 2216 -2324 4277 -2652 5911 -103 514 -143 920 -133 1358 12
489 89 878 264 1321 186 470 454 885 808 1249 444 456 950 774 1545 971 262
87 570 152 845 180 144 14 710 5 845 -14z"/>
<path d="M7710 13439 c-478 -48 -943 -264 -1297 -602 -365 -350 -597 -800
-668 -1301 -20 -140 -23 -427 -6 -556 47 -349 166 -674 348 -950 309 -468 771
-798 1305 -934 346 -89 736 -89 1083 -1 390 98 733 293 1020 580 561 560 779
1357 580 2120 -209 803 -861 1428 -1673 1605 -207 45 -477 60 -692 39z m500
-629 c570 -93 1054 -506 1239 -1058 62 -187 75 -275 76 -512 0 -240 -8 -298
-72 -499 -220 -695 -920 -1160 -1645 -1093 -236 22 -411 72 -609 174 -693 356
-1023 1171 -778 1921 86 262 258 523 462 698 373 320 837 449 1327 369z"/>
<path d="M4780 5154 c-14 -3 -135 -23 -270 -45 -1574 -257 -2817 -692 -3535
-1238 -127 -97 -333 -302 -408 -407 -121 -171 -213 -388 -238 -563 -18 -125
-6 -313 26 -431 139 -508 648 -967 1480 -1335 1118 -495 2760 -837 4610 -960
819 -54 1924 -60 2740 -15 2826 157 5135 816 5973 1705 290 307 420 631 391
972 -59 699 -763 1291 -2096 1761 -567 201 -1268 373 -2068 508 -345 58 -435
62 -512 21 -116 -61 -178 -160 -178 -287 0 -65 5 -85 33 -142 35 -71 90 -126
154 -152 19 -8 174 -38 344 -66 1147 -189 2057 -450 2724 -781 337 -168 553
-312 726 -484 180 -179 253 -332 241 -500 -31 -420 -719 -895 -1822 -1258
-2527 -832 -6630 -927 -9535 -221 -1408 342 -2372 848 -2576 1351 -107 268 67
567 501 862 659 448 1811 818 3251 1046 246 38 298 57 363 132 179 202 45 519
-222 529 -40 1 -83 0 -97 -2z"/>
</g>
</svg>
