<?xml version="1.0" standalone="no"?>
<!DOCTYPE svg PUBLIC "-//W3C//DTD SVG 20010904//EN"
 "http://www.w3.org/TR/2001/REC-SVG-20010904/DTD/svg10.dtd">
<svg version="1.0" xmlns="http://www.w3.org/2000/svg"
 width="500.000000pt" height="500.000000pt" viewBox="0 0 500.000000 500.000000"
 preserveAspectRatio="xMidYMid meet">

<g transform="translate(0.000000,500.000000) scale(0.100000,-0.100000)"
fill="#000000" stroke="none">
<path d="M1495 3865 c-552 -542 -1007 -990 -1010 -995 -9 -15 128 -13 143 2 9
9 12 -269 12 -1253 0 -1208 1 -1267 18 -1282 17 -15 123 -17 1233 -17 2636 -1
2516 -2 2533 16 14 14 16 142 16 1265 l0 1249 66 0 c40 0 63 4 59 10 -3 5
-460 455 -1015 1000 -687 674 -1016 990 -1030 990 -14 0 -342 -315 -1025 -985z
m2373 -455 c226 -222 424 -422 440 -445 l27 -40 3 -1252 2 -1253 -601 0 -601
0 6 35 c41 216 32 457 -24 692 -34 141 -64 221 -121 315 -38 65 -143 188 -159
188 -5 0 -31 14 -58 30 -165 103 -346 69 -519 -98 -97 -94 -179 -266 -229
-482 -40 -169 -43 -474 -7 -652 l5 -28 -646 0 -646 0 3 1272 c1 700 5 1281 8
1291 3 10 402 407 888 883 l882 865 467 -459 c257 -252 653 -640 880 -862z
m-1201 -1785 c103 -31 240 -193 302 -357 18 -46 36 -92 41 -103 13 -29 20 -57
25 -101 3 -22 12 -82 21 -134 18 -106 15 -308 -7 -437 l-12 -73 -452 0 -453 0
-12 78 c-24 156 -24 306 -1 452 42 264 106 421 233 567 92 107 197 143 315
108z"/>
</g>
</svg>
