<?xml version="1.0" standalone="no"?>
<!DOCTYPE svg PUBLIC "-//W3C//DTD SVG 20010904//EN"
 "http://www.w3.org/TR/2001/REC-SVG-20010904/DTD/svg10.dtd">
<svg version="1.0" xmlns="http://www.w3.org/2000/svg"
 width="512.000000pt" height="512.000000pt" viewBox="0 0 512.000000 512.000000"
 preserveAspectRatio="xMidYMid meet">

<g transform="translate(0.000000,512.000000) scale(0.100000,-0.100000)"
fill="#000000" stroke="none">
<path d="M2495 5108 c-16 -6 -46 -22 -65 -36 -43 -33 -2337 -2115 -2368 -2151
-82 -92 -80 -213 3 -296 88 -88 209 -85 313 9 21 20 42 36 46 36 3 0 6 -564 6
-1252 0 -1190 1 -1255 19 -1293 23 -51 79 -101 128 -114 53 -15 3913 -15 3966
0 49 13 105 63 128 114 18 38 19 103 19 1293 0 688 3 1252 6 1252 4 0 25 -16
46 -36 104 -94 225 -97 313 -9 79 79 85 193 16 281 -40 51 -2386 2174 -2420
2190 -45 21 -116 27 -156 12z m929 -1275 l846 -768 0 -1317 0 -1318 -430 0
-429 0 -4 717 c-3 806 1 754 -81 928 -104 218 -293 379 -531 451 -80 24 -106
27 -235 27 -129 0 -155 -3 -235 -27 -238 -72 -427 -233 -531 -451 -82 -174
-78 -122 -81 -928 l-4 -717 -429 0 -430 0 0 1318 0 1317 851 773 c506 459 857
771 865 768 7 -3 393 -351 858 -773z m-689 -1741 c110 -52 192 -143 232 -260
15 -41 17 -129 20 -724 l4 -678 -431 0 -431 0 4 678 c3 595 5 683 20 724 47
137 150 238 292 285 25 8 75 12 130 10 77 -2 100 -7 160 -35z"/>
</g>
</svg>
